<svg width="30" height="28" viewBox="0 0 30 28" fill="none" xmlns="http://www.w3.org/2000/svg">
<path d="M19.7811 27.8965C19.0491 28.1335 18.3333 27.5606 18.3333 26.7912V25.7781C18.3333 25.2437 18.6893 24.7795 19.1909 24.5949C21.2979 23.8194 23.026 22.5241 24.375 20.7091C25.9028 18.6535 26.6667 16.3202 26.6667 13.7091C26.6667 11.098 25.9028 8.76462 24.375 6.70907C23.026 4.89401 21.2979 3.59874 19.1909 2.82327C18.6893 2.63867 18.3333 2.17447 18.3333 1.63999V0.626914C18.3333 -0.142464 19.0491 -0.715377 19.7811 -0.478382C22.5723 0.425333 24.8952 2.03643 26.75 4.3549C28.9167 7.06323 30 10.1813 30 13.7091C30 17.2368 28.9167 20.3549 26.75 23.0632C24.8952 25.3817 22.5723 26.9928 19.7811 27.8965ZM1.2 18.7507C0.537257 18.7507 0 18.2135 0 17.5507V9.95073C0 9.28799 0.537258 8.75073 1.2 8.75073H6.16961C6.48787 8.75073 6.79309 8.6243 7.01814 8.39926L12.9515 2.46593C13.7074 1.70997 15 2.24537 15 3.31446V24.187C15 25.2561 13.7074 25.7915 12.9515 25.0355L7.01814 19.1022C6.79309 18.8772 6.48787 18.7507 6.16961 18.7507H1.2ZM19.9229 19.411C19.2497 19.9755 18.3333 19.4093 18.3333 18.5307V8.88739C18.3333 8.00884 19.2496 7.44321 19.921 8.00981C20.4989 8.49749 20.9905 9.0778 21.3958 9.75073C22.1319 10.973 22.5 12.3063 22.5 13.7507C22.5 15.1674 22.1319 16.4799 21.3958 17.6882C20.991 18.3528 20.5 18.9271 19.9229 19.411ZM11.6667 11.3978C11.6667 10.3287 10.3741 9.7933 9.61814 10.5493L8.4348 11.7326C8.20976 11.9576 7.90454 12.0841 7.58628 12.0841H4.53333C3.87059 12.0841 3.33333 12.6213 3.33333 13.2841V14.2174C3.33333 14.8801 3.87059 15.4174 4.53333 15.4174H7.58628C7.90454 15.4174 8.20976 15.5438 8.4348 15.7689L9.61814 16.9522C10.3741 17.7082 11.6667 17.1728 11.6667 16.1037V11.3978Z" fill="#1B4544"/>
</svg>
