<svg width="80" height="80" viewBox="0 0 80 80" fill="none" xmlns="http://www.w3.org/2000/svg">
<rect x="0.8" y="0.8" width="78.4" height="78.4" rx="39.2" fill="black" fill-opacity="0.01"/>
<rect x="0.8" y="0.8" width="78.4" height="78.4" rx="39.2" stroke="#1B4544" stroke-width="1.6"/>
<g clip-path="url(#clip0_97_615)">
<mask id="mask0_97_615" style="mask-type:alpha" maskUnits="userSpaceOnUse" x="19" y="18" width="41" height="41">
<rect x="19.9995" y="18.7522" width="40" height="40" rx="1.2" fill="#D9D9D9"/>
</mask>
<g mask="url(#mask0_97_615)">
<path d="M44.7811 52.8965C44.0491 53.1335 43.3333 52.5606 43.3333 51.7912V50.7781C43.3333 50.2437 43.6893 49.7795 44.1909 49.5949C46.2979 48.8194 48.026 47.5241 49.375 45.7091C50.9028 43.6535 51.6667 41.3202 51.6667 38.7091C51.6667 36.098 50.9028 33.7646 49.375 31.7091C48.026 29.894 46.2979 28.5987 44.1909 27.8233C43.6893 27.6387 43.3333 27.1745 43.3333 26.64V25.6269C43.3333 24.8575 44.0491 24.2846 44.7811 24.5216C47.5723 25.4253 49.8952 27.0364 51.75 29.3549C53.9167 32.0632 55 35.1813 55 38.7091C55 42.2368 53.9167 45.3549 51.75 48.0632C49.8952 50.3817 47.5723 51.9928 44.7811 52.8965ZM26.2 43.7507C25.5373 43.7507 25 43.2135 25 42.5507V34.9507C25 34.288 25.5373 33.7507 26.2 33.7507H31.1696C31.4879 33.7507 31.7931 33.6243 32.0181 33.3993L37.9515 27.4659C38.7074 26.71 40 27.2454 40 28.3145V49.187C40 50.2561 38.7074 50.7915 37.9515 50.0355L32.0181 44.1022C31.7931 43.8772 31.4879 43.7507 31.1696 43.7507H26.2ZM44.9229 44.411C44.2497 44.9755 43.3333 44.4093 43.3333 43.5307V33.8874C43.3333 33.0088 44.2496 32.4432 44.921 33.0098C45.4989 33.4975 45.9905 34.0778 46.3958 34.7507C47.1319 35.973 47.5 37.3063 47.5 38.7507C47.5 40.1674 47.1319 41.4799 46.3958 42.6882C45.991 43.3528 45.5 43.9271 44.9229 44.411ZM36.6667 36.3978C36.6667 35.3287 35.3741 34.7933 34.6181 35.5493L33.4348 36.7326C33.2098 36.9576 32.9045 37.0841 32.5863 37.0841H29.5333C28.8706 37.0841 28.3333 37.6213 28.3333 38.2841V39.2174C28.3333 39.8801 28.8706 40.4174 29.5333 40.4174H32.5863C32.9045 40.4174 33.2098 40.5438 33.4348 40.7689L34.6181 41.9522C35.3741 42.7082 36.6667 42.1728 36.6667 41.1037V36.3978Z" fill="#1B4544"/>
</g>
</g>
<defs>
<clipPath id="clip0_97_615">
<rect x="25" y="25" width="30" height="30" rx="12" fill="white"/>
</clipPath>
</defs>
</svg>

