<svg width="159" height="30" viewBox="0 0 159 30" fill="none" xmlns="http://www.w3.org/2000/svg">
<path d="M85.8225 0.00222732H62.5809C61.9017 0.00222732 61.5187 0.383016 61.5187 1.06443V5.66731H67.382V5.65395H85.8225C86.5016 5.65395 86.8847 5.27093 86.8847 4.59175V1.06443C86.8847 0.383016 86.5016 0.00222732 85.8225 0.00222732ZM85.8225 24.3483H61.5187V28.9378C61.5187 29.617 61.9017 30 62.5809 30H85.8225C86.5016 30 86.8847 29.617 86.8847 28.9378V25.4105C86.8847 24.7313 86.5016 24.3483 85.8225 24.3483ZM80.3845 16.3606V13.2586C80.3845 12.5794 80.0015 12.1964 79.3223 12.1964H61.5187V17.4228H79.3223C80.0015 17.4228 80.3845 17.0398 80.3845 16.3606ZM27.4659 21.5402H24.8538C24.1902 21.5402 23.5622 21.9143 23.315 22.5289C22.736 23.9608 21.5024 24.3461 19.545 24.3461H10.0698C7.22387 24.3461 5.90558 23.5377 5.90558 19.8857V10.1544C5.90558 6.45784 7.13702 5.65172 10.0698 5.65172H19.545C21.3532 5.65172 22.5134 5.96125 23.1391 7.06577C23.442 7.60021 23.9764 7.96318 24.591 7.96318H27.3144C28.4635 7.96318 29.3008 6.83418 28.9267 5.74525C27.6819 2.12441 24.6868 0 19.545 0H10.0698C3.01737 0 0 3.99273 0 10.3659V19.6719C0 26.0028 3.01737 29.9955 10.0698 29.9955H19.545C24.9495 29.9955 27.978 27.644 29.1004 23.6958C29.4077 22.6158 28.5926 21.538 27.4681 21.538L27.4659 21.5402ZM109.997 16.3606V13.2586C109.997 12.5794 109.614 12.1964 108.935 12.1964H91.1312V17.4228H108.935C109.614 17.4228 109.997 17.0398 109.997 16.3606ZM57.2699 24.3483H39.8916V1.06443C39.8916 0.383016 39.5086 0.00222732 38.8294 0.00222732H35.0483C34.3691 0.00222732 33.986 0.383016 33.986 1.06443V28.9356C33.986 29.6148 34.3691 29.9978 35.0483 29.9978H57.2699C57.9491 29.9978 58.3321 29.6148 58.3321 28.9356V25.4083C58.3321 24.7291 57.9491 24.3461 57.2699 24.3461V24.3483ZM148.279 0.00222732H144.497C143.818 0.00222732 143.435 0.383016 143.435 1.06443V21.1194L126.95 0.639104C126.612 0.213777 126.186 0.00222732 125.634 0.00222732H121.81C121.131 0.00222732 120.748 0.383016 120.748 1.06443V28.9356C120.748 29.6148 121.131 29.9978 121.81 29.9978H125.592C126.271 29.9978 126.654 29.6148 126.654 28.9356V9.0098L143.139 29.3609C143.478 29.7862 143.905 29.9978 144.455 29.9978H148.279C148.96 29.9978 149.341 29.6148 149.341 28.9356V1.06443C149.341 0.383016 148.958 0.00222732 148.279 0.00222732ZM115.435 24.3483H91.1312V28.9378C91.1312 29.617 91.5143 30 92.1934 30H115.435C116.114 30 116.497 29.617 116.497 28.9378V25.4105C116.497 24.7313 116.114 24.3483 115.435 24.3483ZM115.435 0.00222732H92.1934C91.5143 0.00222732 91.1312 0.383016 91.1312 1.06443V5.66731H96.9945V5.65395H115.435C116.114 5.65395 116.497 5.27093 116.497 4.59175V1.06443C116.497 0.383016 116.114 0.00222732 115.435 0.00222732ZM155.318 23.992C153.668 23.992 152.365 25.2702 152.365 26.9938C152.365 28.7173 153.668 29.9978 155.318 29.9978C156.968 29.9978 158.27 28.7196 158.27 26.9938C158.27 25.268 156.968 23.992 155.318 23.992ZM155.318 29.5012C153.953 29.5012 152.861 28.4457 152.861 26.9938C152.861 25.5419 153.953 24.4863 155.318 24.4863C156.683 24.4863 157.774 25.553 157.774 26.9938C157.774 28.4345 156.683 29.5012 155.318 29.5012ZM156.001 27.094V27.0828C156.349 26.996 156.571 26.7355 156.571 26.2767C156.571 25.7178 156.151 25.3704 155.516 25.3704H154.224V28.5592H154.745V27.2699H155.291C156.222 27.2699 155.912 28.4234 156.048 28.5592H156.607V28.5347C156.447 28.4857 156.707 27.232 155.999 27.0962L156.001 27.094ZM155.293 26.7978H154.748V25.8536H155.293C155.627 25.8536 156.037 25.8291 156.037 26.3257C156.037 26.8223 155.627 26.7978 155.293 26.7978Z" fill="#1B4544"/>
</svg>

